<?xml version="1.0" encoding="utf-8"?>
<!-- Generator: Adobe Illustrator 24.0.0, SVG Export Plug-In . SVG Version: 6.00 Build 0)  -->
<svg version="1.1" xmlns="http://www.w3.org/2000/svg" xmlns:xlink="http://www.w3.org/1999/xlink" x="0px" y="0px"
	 viewBox="0 0 980.47 290.18" style="enable-background:new 0 0 980.47 290.18;" xml:space="preserve">
<style type="text/css">
	.st0{fill:#FF2700;}
</style>
<g id="Layer_1">
	<g>
		<path class="st0" d="M523.58,5.22c2.18-0.14,3.91-0.36,5.63-0.36c40.64,0.01,81.27-0.18,121.91,0.16
			c17.81,0.15,35.44,2.41,51.92,9.83c28.77,12.95,46.6,35.79,55.92,65c13.43,42.1,14.46,85.28,3.07,127.67
			c-12.16,45.24-41.89,73.52-89.82,79.93c-11.18,1.49-22.51,2.45-33.78,2.55c-35.75,0.32-71.5,0.12-107.25,0.12
			c-2.38,0-4.76,0-7.6,0C523.58,194.78,523.58,100.18,523.58,5.22z M605.61,224.49c13.28,0,26.01,1.1,38.47-0.24
			c22.74-2.44,33.73-12.24,38.55-34.74c5.95-27.79,5.74-55.86-0.74-83.61c-4.32-18.48-15.88-30.83-34.87-34.02
			c-13.42-2.25-27.21-2.29-41.41-3.36C605.61,121.57,605.61,173.05,605.61,224.49z"/>
		<path class="st0" d="M266.31,5.2c73.69,0,146.89,0,220.49,0c0,20.02,0,39.81,0,60.35c-46.16,0-92.01,0-138.16,0
			c0,15.46,0,30.16,0,45.58c42.71,0,85.02,0,127.8,0c0,19.6,0,38.48,0,58.08c-42.74,0-85.06,0-127.78,0c0,18.96,0,37.22,0,56.21
			c47.44,0,94.62,0,142.18,0c0,21.7,0,42.66,0,64.16c-74.63,0-149.32,0-224.53,0C266.31,194.81,266.31,100.18,266.31,5.2z"/>
		<path class="st0" d="M249.76,74.72c-27.92,0-55.38,0-83.68,0c0,71.95,0,143.33,0,215.06c-27.65,0-54.45,0-82.15,0
			c0-71.34,0-142.72,0-214.7c-28.34,0-55.79,0-83.92,0C0,51.61,0,28.74,0,5.36c83.02,0,166.17,0,249.76,0
			C249.76,28.24,249.76,50.96,249.76,74.72z"/>
		<polygon class="st0" points="798.48,0 865,0 888.25,43.1 914.93,0 976.29,0 927.22,74.61 980.47,155.19 914.21,155.19 
			888.25,105.1 857.21,155.19 795.73,155.19 848.56,74.61 		"/>
	</g>
</g>
<g id="Layer_2">
</g>
</svg>
