<?xml version="1.0" encoding="UTF-8"?>
<svg width="85px" height="25px" viewBox="0 0 85 25" version="1.1" xmlns="http://www.w3.org/2000/svg" xmlns:xlink="http://www.w3.org/1999/xlink">
    <!-- Generator: sketchtool 60.1 (101010) - https://sketch.com -->
    <title>ADFBDFCE-8F85-4A12-A12D-E78183C1525D</title>
    <desc>Created with sketchtool.</desc>
    <g id="Page-1" stroke="none" stroke-width="1" fill="none" fill-rule="evenodd">
        <g id="TEDx-Explore" transform="translate(-32.000000, -15.000000)">
            <rect fill="#FFFFFF" x="0" y="0" width="1440" height="2658"></rect>
            <g id="TED-X-Logo" transform="translate(32.000000, 15.000000)" fill="#E62B1E" fill-rule="nonzero">
                <path d="M46,1.03397726 C46.1858815,1.02220289 46.3333929,1.00370032 46.4800517,1.00370032 C49.9452914,1.00454135 53.4096784,0.988561853 56.8749181,1.01715674 C58.3935184,1.02977213 59.8967708,1.21984401 61.3019664,1.84388531 C63.7550901,2.933014 65.2753958,4.85391743 66.0700817,7.31055442 C67.2152138,10.851274 67.3030385,14.4828243 66.3318505,18.0479336 C65.2950071,21.8527353 62.7600274,24.2311569 58.6731933,24.7702545 C57.7199113,24.8955674 56.7538393,24.9763059 55.7928833,24.9847162 C52.7445979,25.011629 49.6963125,24.9948085 46.6480271,24.9948085 C46.4450923,24.9948085 46.2421575,24.9948085 46,24.9948085 C46,16.9764664 46,9.02036031 46,1.03397726 Z M52.9944294,19.4751547 C54.1267715,19.4751547 55.2122169,19.5676676 56.2746403,19.4549701 C58.2136057,19.2497598 59.150687,18.4255543 59.5616726,16.5332457 C60.0690096,14.1960344 60.0511036,11.8352744 59.4985752,9.5014272 C59.1302229,7.94721112 58.1445396,6.90854399 56.5253245,6.64025669 C55.3810451,6.45102583 54.2052169,6.44766173 52.9944294,6.35767195 C52.9944294,10.819315 52.9944294,15.1489169 52.9944294,19.4751547 Z" id="Shape"></path>
                <path d="M23,1 C29.2357369,1 35.4300094,1 41.6581303,1 C41.6581303,2.68957029 41.6581303,4.35972994 41.6581303,6.09318517 C37.7520153,6.09318517 33.8721329,6.09318517 29.9668641,6.09318517 C29.9668641,7.39791828 29.9668641,8.63851185 29.9668641,9.93986919 C33.5810359,9.93986919 37.1613593,9.93986919 40.7814546,9.93986919 C40.7814546,11.593994 40.7814546,13.1873549 40.7814546,14.8414797 C37.1647441,14.8414797 33.5835746,14.8414797 29.9685565,14.8414797 C29.9685565,16.4415922 29.9685565,17.9826289 29.9685565,19.5852732 C33.9829867,19.5852732 37.9754153,19.5852732 42,19.5852732 C42,21.4166256 42,23.1855264 42,25 C35.6847192,25 29.3643611,25 23,25 C23,17.0019692 23,9.01575357 23,1 Z" id="Path"></path>
                <path d="M21,6.85275297 C18.6524664,6.85275297 16.3436099,6.85275297 13.9641256,6.85275297 C13.9641256,12.924056 13.9641256,18.9472611 13.9641256,25 C11.6392937,25 9.38593049,25 7.05689462,25 C7.05689462,18.9801702 7.05689462,12.9569651 7.05689462,6.88313058 C4.67404709,6.88313058 2.36603139,6.88313058 0.000840807175,6.88313058 C0,4.90267914 0,2.97285704 0,1 C6.98038117,1 13.9716928,1 21,1 C21,2.93066592 21,4.84783067 21,6.85275297 Z" id="Path"></path>
                <polygon id="Path" points="69.2381726 0 74.9993504 0 77.0129912 3.61041304 79.3236982 0 84.6379777 0 80.388113 6.24995167 85 13 79.2613403 13 77.0129912 8.80404665 74.3246725 13 69 13 73.5755115 6.24995167"></polygon>
            </g>
        </g>
    </g>
</svg>